<mxfile host="app.diagrams.net" modified="2020-11-03T05:42:09.812Z" agent="5.0 (Windows NT 6.1; Win64; x64) AppleWebKit/537.36 (KHTML, like Gecko) Chrome/86.0.4240.111 Safari/537.36" etag="K5WOUlrrz84tTvjXMUxa" version="13.8.8" type="github">
  <diagram id="CnsdwGDqKVv3tJwIl41P" name="Page-1">
    <mxGraphModel dx="1102" dy="614" grid="1" gridSize="10" guides="1" tooltips="1" connect="1" arrows="1" fold="1" page="1" pageScale="1" pageWidth="850" pageHeight="1100" math="0" shadow="0">
      <root>
        <mxCell id="0" />
        <mxCell id="1" parent="0" />
        <mxCell id="FqahinOUKAI1D_94lY6C-1" value="&lt;span style=&quot;font-size: 20px&quot;&gt;Client&lt;br&gt;(User)&lt;/span&gt;" style="rounded=1;whiteSpace=wrap;html=1;strokeWidth=3;" parent="1" vertex="1">
          <mxGeometry x="30" y="80" width="130" height="90" as="geometry" />
        </mxCell>
        <mxCell id="FqahinOUKAI1D_94lY6C-2" value="" style="endArrow=classic;html=1;rounded=0;strokeWidth=3;entryX=0;entryY=0.5;entryDx=0;entryDy=0;exitX=1;exitY=0.5;exitDx=0;exitDy=0;" parent="1" source="FqahinOUKAI1D_94lY6C-1" target="FqahinOUKAI1D_94lY6C-3" edge="1">
          <mxGeometry width="50" height="50" relative="1" as="geometry">
            <mxPoint x="200" y="120" as="sourcePoint" />
            <mxPoint x="330" y="225" as="targetPoint" />
          </mxGeometry>
        </mxCell>
        <mxCell id="FqahinOUKAI1D_94lY6C-3" value="Browser&lt;br&gt;(It shows what we see.&lt;br&gt;Prase (Read and Execute)&lt;br&gt;&amp;nbsp;the HTML,CSS,JS" style="rounded=1;whiteSpace=wrap;html=1;fontSize=20;strokeWidth=3;" parent="1" vertex="1">
          <mxGeometry x="250" y="50" width="250" height="150" as="geometry" />
        </mxCell>
        <mxCell id="FqahinOUKAI1D_94lY6C-6" value="" style="endArrow=classic;html=1;strokeWidth=3;fontSize=20;exitX=0.5;exitY=1;exitDx=0;exitDy=0;" parent="1" source="FqahinOUKAI1D_94lY6C-3" target="FqahinOUKAI1D_94lY6C-7" edge="1">
          <mxGeometry width="50" height="50" relative="1" as="geometry">
            <mxPoint x="370" y="330" as="sourcePoint" />
            <mxPoint x="390" y="390" as="targetPoint" />
          </mxGeometry>
        </mxCell>
        <mxCell id="FqahinOUKAI1D_94lY6C-7" value="Enters Url&lt;br&gt;(youtube.com)" style="text;html=1;strokeColor=none;fillColor=none;align=center;verticalAlign=middle;whiteSpace=wrap;rounded=0;fontSize=20;" parent="1" vertex="1">
          <mxGeometry x="293.75" y="370" width="162.5" height="80" as="geometry" />
        </mxCell>
        <mxCell id="FqahinOUKAI1D_94lY6C-10" value="Request" style="text;html=1;strokeColor=none;fillColor=none;align=center;verticalAlign=middle;whiteSpace=wrap;rounded=0;fontSize=20;" parent="1" vertex="1">
          <mxGeometry x="363" y="490" width="124" height="40" as="geometry" />
        </mxCell>
        <mxCell id="FqahinOUKAI1D_94lY6C-11" value="DNS Server&lt;br&gt;(A Huge Dictionary of Domain to IP)" style="rounded=1;whiteSpace=wrap;html=1;fontSize=20;strokeWidth=3;" parent="1" vertex="1">
          <mxGeometry x="297.5" y="570" width="155" height="120" as="geometry" />
        </mxCell>
        <mxCell id="FqahinOUKAI1D_94lY6C-12" value="" style="endArrow=classic;html=1;strokeWidth=3;fontSize=20;exitX=1;exitY=0.5;exitDx=0;exitDy=0;entryX=0;entryY=0.5;entryDx=0;entryDy=0;" parent="1" source="FqahinOUKAI1D_94lY6C-11" target="FqahinOUKAI1D_94lY6C-13" edge="1">
          <mxGeometry width="50" height="50" relative="1" as="geometry">
            <mxPoint x="480" y="670" as="sourcePoint" />
            <mxPoint x="550" y="640" as="targetPoint" />
          </mxGeometry>
        </mxCell>
        <mxCell id="FqahinOUKAI1D_94lY6C-13" value="Translates&lt;br&gt;Domain to IP" style="text;html=1;strokeColor=none;fillColor=none;align=center;verticalAlign=middle;whiteSpace=wrap;rounded=0;fontSize=20;" parent="1" vertex="1">
          <mxGeometry x="550" y="590" width="110" height="80" as="geometry" />
        </mxCell>
        <mxCell id="FqahinOUKAI1D_94lY6C-14" value="" style="endArrow=classic;html=1;strokeWidth=3;fontSize=20;exitX=0.5;exitY=1;exitDx=0;exitDy=0;entryX=0.5;entryY=0;entryDx=0;entryDy=0;" parent="1" source="FqahinOUKAI1D_94lY6C-11" target="FqahinOUKAI1D_94lY6C-15" edge="1">
          <mxGeometry width="50" height="50" relative="1" as="geometry">
            <mxPoint x="370" y="770" as="sourcePoint" />
            <mxPoint x="395" y="880" as="targetPoint" />
          </mxGeometry>
        </mxCell>
        <mxCell id="FqahinOUKAI1D_94lY6C-15" value="Server" style="rounded=1;whiteSpace=wrap;html=1;fontSize=20;strokeWidth=3;" parent="1" vertex="1">
          <mxGeometry x="315" y="880" width="120" height="60" as="geometry" />
        </mxCell>
        <mxCell id="FqahinOUKAI1D_94lY6C-17" value="" style="endArrow=classic;html=1;strokeWidth=3;fontSize=20;exitX=0.5;exitY=1;exitDx=0;exitDy=0;entryX=0.583;entryY=1.05;entryDx=0;entryDy=0;entryPerimeter=0;" parent="1" source="FqahinOUKAI1D_94lY6C-15" target="FqahinOUKAI1D_94lY6C-18" edge="1">
          <mxGeometry width="50" height="50" relative="1" as="geometry">
            <mxPoint x="380" y="1000" as="sourcePoint" />
            <mxPoint x="710" y="270" as="targetPoint" />
            <Array as="points">
              <mxPoint x="375" y="1060" />
              <mxPoint x="730" y="1060" />
            </Array>
          </mxGeometry>
        </mxCell>
        <mxCell id="FqahinOUKAI1D_94lY6C-18" value="Website" style="rounded=1;whiteSpace=wrap;html=1;fontSize=20;strokeWidth=3;" parent="1" vertex="1">
          <mxGeometry x="660" y="85" width="120" height="80" as="geometry" />
        </mxCell>
        <mxCell id="FqahinOUKAI1D_94lY6C-19" value="" style="endArrow=classic;html=1;strokeWidth=3;fontSize=20;exitX=1;exitY=0.5;exitDx=0;exitDy=0;entryX=0;entryY=0.5;entryDx=0;entryDy=0;" parent="1" source="FqahinOUKAI1D_94lY6C-3" target="FqahinOUKAI1D_94lY6C-18" edge="1">
          <mxGeometry width="50" height="50" relative="1" as="geometry">
            <mxPoint x="520" y="260" as="sourcePoint" />
            <mxPoint x="570" y="210" as="targetPoint" />
          </mxGeometry>
        </mxCell>
        <mxCell id="FqahinOUKAI1D_94lY6C-20" value="Stores or Generates the Website" style="text;html=1;strokeColor=none;fillColor=none;align=center;verticalAlign=middle;whiteSpace=wrap;rounded=0;fontSize=20;" parent="1" vertex="1">
          <mxGeometry x="405" y="970" width="280" height="90" as="geometry" />
        </mxCell>
        <mxCell id="FqahinOUKAI1D_94lY6C-21" value="Expect to See" style="text;html=1;strokeColor=none;fillColor=none;align=center;verticalAlign=middle;whiteSpace=wrap;rounded=0;fontSize=20;" parent="1" vertex="1">
          <mxGeometry x="500" y="120" width="150" height="70" as="geometry" />
        </mxCell>
        <mxCell id="WXgPLVYQaYO02zLYoF-L-3" value="" style="endArrow=classic;html=1;strokeWidth=3;exitX=0.5;exitY=1;exitDx=0;exitDy=0;entryX=0.5;entryY=0;entryDx=0;entryDy=0;" parent="1" source="FqahinOUKAI1D_94lY6C-7" target="FqahinOUKAI1D_94lY6C-11" edge="1">
          <mxGeometry width="50" height="50" relative="1" as="geometry">
            <mxPoint x="330" y="530" as="sourcePoint" />
            <mxPoint x="389" y="570" as="targetPoint" />
          </mxGeometry>
        </mxCell>
        <mxCell id="4F7Vhc4TxKgZkgz7AhtZ-1" value="&lt;font style=&quot;font-size: 20px&quot;&gt;Reponse&lt;/font&gt;" style="text;html=1;strokeColor=none;fillColor=none;align=center;verticalAlign=middle;whiteSpace=wrap;rounded=0;" parent="1" vertex="1">
          <mxGeometry x="740" y="520" width="70" height="70" as="geometry" />
        </mxCell>
      </root>
    </mxGraphModel>
  </diagram>
</mxfile>
